<!DOCTYPE svg PUBLIC "-//W3C//DTD SVG 1.1//EN" "https://www.w3.org/Graphics/SVG/1.1/DTD/svg11.dtd">
<svg xmlns="http://www.w3.org/2000/svg" id="sfn-svg" class="sfn-workflow-graph" width="671" height="1135">  
<g transform="translate(12,19.191667556762695)"><g class="nodes"><g class="node-container" transform="translate(323.4458312988281,19)"><g class="node anchor"><circle class="shape" x="-16.191667556762695" y="-9" r="26.191667556762695"/><text class="label"><tspan xml:space="preserve" text-anchor="middle" alignment-baseline="central">Start</tspan></text></g></g><g class="node-container" transform="translate(323.4458312988281,1081)"><g class="node anchor"><circle class="shape" x="-12.175000190734863" y="-9" r="22.175000190734863"/><text class="label"><tspan xml:space="preserve" text-anchor="middle" alignment-baseline="central">End</tspan></text></g></g><g class="node-container" transform="translate(323.4458312988281,518.5)"><g class="node state Parallel NotYetStarted Container" transform="translate(-323.4458312988281,-455.5)"><rect class="shape" rx="129.37833251953126" ry="129.37833251953126" x="0" y="0" width="646.8916625976562" height="911"/><g class="branches" transform="translate(20,40)"><g class="branch" transform="translate(0,0)"><g class="nodes"><g class="node-container" transform="translate(98.15833282470703,19)"><g class="node state Task NotYetStarted"><rect class="shape" rx="5" ry="5" x="-71.10833358764648" y="-19" width="142.21666717529297" height="38"/><text class="label"><tspan xml:space="preserve" text-anchor="middle" alignment-baseline="central">DownloadDataBlue</tspan></text></g></g><g class="node-container" transform="translate(98.15833282470703,82)"><g class="node state Task NotYetStarted"><rect class="shape" rx="5" ry="5" x="-80.26667022705078" y="-19" width="160.53334045410156" height="38"/><text class="label"><tspan xml:space="preserve" text-anchor="middle" alignment-baseline="central">mProject-Blue-Fanout</tspan></text></g></g><g class="node-container" transform="translate(98.15833282470703,165)"><g class="node state Map NotYetStarted Container" transform="translate(-75.1500015258789,-39)"><rect class="shape" rx="5" ry="5" x="-10" y="-10" width="148.3000030517578" height="76"/><rect class="shape" rx="5" ry="5" x="-5" y="-5" width="149.3000030517578" height="77"/><rect class="shape" rx="5" ry="5" x="0" y="0" width="150.3000030517578" height="78"/><g class="branches" transform="translate(20,20)"><g class="branch" transform="translate(0,0)"><g class="nodes"><g class="node-container" transform="translate(55.150001525878906,19)"><g class="node state Task NotYetStarted"><rect class="shape" rx="5" ry="5" x="-55.150001525878906" y="-19" width="110.30000305175781" height="38"/><text class="label"><tspan xml:space="preserve" text-anchor="middle" alignment-baseline="central">mProject-Blue</tspan></text></g></g></g><g class="edges"/></g></g><path class="path" style="fill: none;" marker-end="url(#arrowhead1)" d="M75.1500015258789,0L75.1500015258789,1.6666666666666665C75.1500015258789,3.333333333333333,75.1500015258789,6.666666666666666,75.1500015258789,8.333333333333332C75.1500015258789,10,75.1500015258789,10,75.1500015258789,11.666666666666664C75.1500015258789,13.333333333333332,75.1500015258789,16.666666666666664,75.1500015258789,18.333333333333332L75.1500015258789,20"/></g></g><g class="node-container" transform="translate(98.15833282470703,248)"><g class="node state Task NotYetStarted"><rect class="shape" rx="5" ry="5" x="-77.68333435058594" y="-19" width="155.36666870117188" height="38"/><text class="label"><tspan xml:space="preserve" text-anchor="middle" alignment-baseline="central">mDiffFit-Blue-Fanout</tspan></text></g></g><g class="node-container" transform="translate(98.15833282470703,331)"><g class="node state Map NotYetStarted Container" transform="translate(-72.56666564941406,-39)"><rect class="shape" rx="5" ry="5" x="-10" y="-10" width="143.13333129882812" height="76"/><rect class="shape" rx="5" ry="5" x="-5" y="-5" width="144.13333129882812" height="77"/><rect class="shape" rx="5" ry="5" x="0" y="0" width="145.13333129882812" height="78"/><g class="branches" transform="translate(20,20)"><g class="branch" transform="translate(0,0)"><g class="nodes"><g class="node-container" transform="translate(52.56666564941406,19)"><g class="node state Task NotYetStarted"><rect class="shape" rx="5" ry="5" x="-52.56666564941406" y="-19" width="105.13333129882812" height="38"/><text class="label"><tspan xml:space="preserve" text-anchor="middle" alignment-baseline="central">mDiffFit-Blue</tspan></text></g></g></g><g class="edges"/></g></g><path class="path" style="fill: none;" marker-end="url(#arrowhead2)" d="M72.56666564941406,0L72.56666564941406,1.6666666666666665C72.56666564941406,3.333333333333333,72.56666564941406,6.666666666666666,72.56666564941406,8.333333333333332C72.56666564941406,10,72.56666564941406,10,72.56666564941406,11.666666666666664C72.56666564941406,13.333333333333332,72.56666564941406,16.666666666666664,72.56666564941406,18.333333333333332L72.56666564941406,20"/></g></g><g class="node-container" transform="translate(98.15833282470703,414)"><g class="node state Task NotYetStarted"><rect class="shape" rx="5" ry="5" x="-63.04166793823242" y="-19" width="126.08333587646484" height="38"/><text class="label"><tspan xml:space="preserve" text-anchor="middle" alignment-baseline="central">mConcatFit-Blue</tspan></text></g></g><g class="node-container" transform="translate(98.15833282470703,477)"><g class="node state Task NotYetStarted"><rect class="shape" rx="5" ry="5" x="-61.108333587646484" y="-19" width="122.21666717529297" height="38"/><text class="label"><tspan xml:space="preserve" text-anchor="middle" alignment-baseline="central">mBgModel-Blue</tspan></text></g></g><g class="node-container" transform="translate(98.15833282470703,540)"><g class="node state Task NotYetStarted"><rect class="shape" rx="5" ry="5" x="-95.7750015258789" y="-19" width="191.5500030517578" height="38"/><text class="label"><tspan xml:space="preserve" text-anchor="middle" alignment-baseline="central">mBackground-Blue-Fanout</tspan></text></g></g><g class="node-container" transform="translate(98.15833282470703,623)"><g class="node state Map NotYetStarted Container" transform="translate(-90.65833282470703,-39)"><rect class="shape" rx="5" ry="5" x="-10" y="-10" width="179.31666564941406" height="76"/><rect class="shape" rx="5" ry="5" x="-5" y="-5" width="180.31666564941406" height="77"/><rect class="shape" rx="5" ry="5" x="0" y="0" width="181.31666564941406" height="78"/><g class="branches" transform="translate(20,20)"><g class="branch" transform="translate(0,0)"><g class="nodes"><g class="node-container" transform="translate(70.65833282470703,19)"><g class="node state Task NotYetStarted"><rect class="shape" rx="5" ry="5" x="-70.65833282470703" y="-19" width="141.31666564941406" height="38"/><text class="label"><tspan xml:space="preserve" text-anchor="middle" alignment-baseline="central">mBackground-Blue</tspan></text></g></g></g><g class="edges"/></g></g><path class="path" style="fill: none;" marker-end="url(#arrowhead3)" d="M90.65833282470703,0L90.65833282470703,1.6666666666666665C90.65833282470703,3.333333333333333,90.65833282470703,6.666666666666666,90.65833282470703,8.333333333333332C90.65833282470703,10,90.65833282470703,10,90.65833282470703,11.666666666666664C90.65833282470703,13.333333333333332,90.65833282470703,16.666666666666664,90.65833282470703,18.333333333333332L90.65833282470703,20"/></g></g><g class="node-container" transform="translate(98.15833282470703,706)"><g class="node state Task NotYetStarted"><rect class="shape" rx="5" ry="5" x="-54.06666564941406" y="-19" width="108.13333129882812" height="38"/><text class="label"><tspan xml:space="preserve" text-anchor="middle" alignment-baseline="central">mImgtbl-Blue</tspan></text></g></g><g class="node-container" transform="translate(98.15833282470703,769)"><g class="node state Task NotYetStarted"><rect class="shape" rx="5" ry="5" x="-45.68333435058594" y="-19" width="91.36666870117188" height="38"/><text class="label"><tspan xml:space="preserve" text-anchor="middle" alignment-baseline="central">mAdd-Blue</tspan></text></g></g><g class="node-container" transform="translate(98.15833282470703,832)"><g class="node state Task NotYetStarted"><rect class="shape" rx="5" ry="5" x="-54.58333206176758" y="-19" width="109.16666412353516" height="38"/><text class="label"><tspan xml:space="preserve" text-anchor="middle" alignment-baseline="central">mViewer-Blue</tspan></text></g></g></g><g class="edges"><g class="edge"><path class="path" style="fill: none;" marker-end="url(#arrowhead4)" d="M98.15833282470703,38L98.15833282470703,40.08333333333333C98.15833282470703,42.166666666666664,98.15833282470703,46.33333333333333,98.15833282470703,50.5C98.15833282470703,54.666666666666664,98.15833282470703,58.83333333333333,98.15833282470703,60.916666666666664L98.15833282470703,63"/><defs><marker id="arrowhead4" viewBox="0 0 10 10" refX="9" refY="5" markerUnits="strokeWidth" markerWidth="8" markerHeight="6" orient="auto"><path d="M 0 0 L 10 5 L 0 10 z"/></marker></defs></g><g class="edge"><path class="path" style="fill: none;" marker-end="url(#arrowhead5)" d="M98.15833282470703,101L98.15833282470703,103.08333333333331C98.15833282470703,105.16666666666666,98.15833282470703,109.33333333333331,98.15833282470703,113.49999999999999C98.15833282470703,117.66666666666666,98.15833282470703,121.83333333333333,98.15833282470703,123.91666666666666L98.15833282470703,126"/><defs><marker id="arrowhead5" viewBox="0 0 10 10" refX="9" refY="5" markerUnits="strokeWidth" markerWidth="8" markerHeight="6" orient="auto"><path d="M 0 0 L 10 5 L 0 10 z"/></marker></defs></g><g class="edge"><path class="path" style="fill: none;" marker-end="url(#arrowhead6)" d="M98.15833282470703,204L98.15833282470703,206.08333333333331C98.15833282470703,208.16666666666666,98.15833282470703,212.33333333333331,98.15833282470703,216.49999999999997C98.15833282470703,220.66666666666663,98.15833282470703,224.83333333333331,98.15833282470703,226.91666666666666L98.15833282470703,229"/><defs><marker id="arrowhead6" viewBox="0 0 10 10" refX="9" refY="5" markerUnits="strokeWidth" markerWidth="8" markerHeight="6" orient="auto"><path d="M 0 0 L 10 5 L 0 10 z"/></marker></defs></g><g class="edge"><path class="path" style="fill: none;" marker-end="url(#arrowhead7)" d="M98.15833282470703,267L98.15833282470703,269.0833333333333C98.15833282470703,271.16666666666663,98.15833282470703,275.3333333333333,98.15833282470703,279.5C98.15833282470703,283.66666666666663,98.15833282470703,287.8333333333333,98.15833282470703,289.9166666666667L98.15833282470703,292"/><defs><marker id="arrowhead7" viewBox="0 0 10 10" refX="9" refY="5" markerUnits="strokeWidth" markerWidth="8" markerHeight="6" orient="auto"><path d="M 0 0 L 10 5 L 0 10 z"/></marker></defs></g><g class="edge"><path class="path" style="fill: none;" marker-end="url(#arrowhead8)" d="M98.15833282470703,370L98.15833282470703,372.0833333333333C98.15833282470703,374.16666666666663,98.15833282470703,378.3333333333333,98.15833282470703,382.5C98.15833282470703,386.66666666666663,98.15833282470703,390.8333333333333,98.15833282470703,392.91666666666663L98.15833282470703,395"/><defs><marker id="arrowhead8" viewBox="0 0 10 10" refX="9" refY="5" markerUnits="strokeWidth" markerWidth="8" markerHeight="6" orient="auto"><path d="M 0 0 L 10 5 L 0 10 z"/></marker></defs></g><g class="edge"><path class="path" style="fill: none;" marker-end="url(#arrowhead9)" d="M98.15833282470703,433L98.15833282470703,435.08333333333326C98.15833282470703,437.16666666666663,98.15833282470703,441.3333333333333,98.15833282470703,445.49999999999994C98.15833282470703,449.66666666666663,98.15833282470703,453.8333333333333,98.15833282470703,455.91666666666663L98.15833282470703,458"/><defs><marker id="arrowhead9" viewBox="0 0 10 10" refX="9" refY="5" markerUnits="strokeWidth" markerWidth="8" markerHeight="6" orient="auto"><path d="M 0 0 L 10 5 L 0 10 z"/></marker></defs></g><g class="edge"><path class="path" style="fill: none;" marker-end="url(#arrowhead10)" d="M98.15833282470703,496L98.15833282470703,498.08333333333326C98.15833282470703,500.16666666666663,98.15833282470703,504.3333333333333,98.15833282470703,508.49999999999994C98.15833282470703,512.6666666666666,98.15833282470703,516.8333333333333,98.15833282470703,518.9166666666666L98.15833282470703,521"/><defs><marker id="arrowhead10" viewBox="0 0 10 10" refX="9" refY="5" markerUnits="strokeWidth" markerWidth="8" markerHeight="6" orient="auto"><path d="M 0 0 L 10 5 L 0 10 z"/></marker></defs></g><g class="edge"><path class="path" style="fill: none;" marker-end="url(#arrowhead11)" d="M98.15833282470703,559L98.15833282470703,561.0833333333333C98.15833282470703,563.1666666666666,98.15833282470703,567.3333333333333,98.15833282470703,571.5C98.15833282470703,575.6666666666666,98.15833282470703,579.8333333333333,98.15833282470703,581.9166666666666L98.15833282470703,584"/><defs><marker id="arrowhead11" viewBox="0 0 10 10" refX="9" refY="5" markerUnits="strokeWidth" markerWidth="8" markerHeight="6" orient="auto"><path d="M 0 0 L 10 5 L 0 10 z"/></marker></defs></g><g class="edge"><path class="path" style="fill: none;" marker-end="url(#arrowhead12)" d="M98.15833282470703,662L98.15833282470703,664.0833333333333C98.15833282470703,666.1666666666666,98.15833282470703,670.3333333333333,98.15833282470703,674.5C98.15833282470703,678.6666666666666,98.15833282470703,682.8333333333333,98.15833282470703,684.9166666666666L98.15833282470703,687"/><defs><marker id="arrowhead12" viewBox="0 0 10 10" refX="9" refY="5" markerUnits="strokeWidth" markerWidth="8" markerHeight="6" orient="auto"><path d="M 0 0 L 10 5 L 0 10 z"/></marker></defs></g><g class="edge"><path class="path" style="fill: none;" marker-end="url(#arrowhead13)" d="M98.15833282470703,725L98.15833282470703,727.0833333333333C98.15833282470703,729.1666666666666,98.15833282470703,733.3333333333333,98.15833282470703,737.5C98.15833282470703,741.6666666666666,98.15833282470703,745.8333333333333,98.15833282470703,747.9166666666666L98.15833282470703,750"/><defs><marker id="arrowhead13" viewBox="0 0 10 10" refX="9" refY="5" markerUnits="strokeWidth" markerWidth="8" markerHeight="6" orient="auto"><path d="M 0 0 L 10 5 L 0 10 z"/></marker></defs></g><g class="edge"><path class="path" style="fill: none;" marker-end="url(#arrowhead14)" d="M98.15833282470703,788L98.15833282470703,790.0833333333331C98.15833282470703,792.1666666666665,98.15833282470703,796.3333333333333,98.15833282470703,800.5C98.15833282470703,804.6666666666666,98.15833282470703,808.8333333333333,98.15833282470703,810.9166666666666L98.15833282470703,813"/><defs><marker id="arrowhead14" viewBox="0 0 10 10" refX="9" refY="5" markerUnits="strokeWidth" markerWidth="8" markerHeight="6" orient="auto"><path d="M 0 0 L 10 5 L 0 10 z"/></marker></defs></g></g></g><g class="branch" transform="translate(216.43333435058594,0)"><g class="nodes"><g class="node-container" transform="translate(96.20832824707031,19)"><g class="node state Task NotYetStarted"><rect class="shape" rx="5" ry="5" x="-69.15833282470703" y="-19" width="138.31666564941406" height="38"/><text class="label"><tspan xml:space="preserve" text-anchor="middle" alignment-baseline="central">DownloadDataRed</tspan></text></g></g><g class="node-container" transform="translate(96.20832824707031,82)"><g class="node state Task NotYetStarted"><rect class="shape" rx="5" ry="5" x="-78.31666564941406" y="-19" width="156.63333129882812" height="38"/><text class="label"><tspan xml:space="preserve" text-anchor="middle" alignment-baseline="central">mProject-Red-Fanout</tspan></text></g></g><g class="node-container" transform="translate(96.20832824707031,165)"><g class="node state Map NotYetStarted Container" transform="translate(-73.20000076293945,-39)"><rect class="shape" rx="5" ry="5" x="-10" y="-10" width="144.4000015258789" height="76"/><rect class="shape" rx="5" ry="5" x="-5" y="-5" width="145.4000015258789" height="77"/><rect class="shape" rx="5" ry="5" x="0" y="0" width="146.4000015258789" height="78"/><g class="branches" transform="translate(20,20)"><g class="branch" transform="translate(0,0)"><g class="nodes"><g class="node-container" transform="translate(53.20000076293945,19)"><g class="node state Task NotYetStarted"><rect class="shape" rx="5" ry="5" x="-53.20000076293945" y="-19" width="106.4000015258789" height="38"/><text class="label"><tspan xml:space="preserve" text-anchor="middle" alignment-baseline="central">mProject-Red</tspan></text></g></g></g><g class="edges"/></g></g><path class="path" style="fill: none;" marker-end="url(#arrowhead15)" d="M73.20000076293945,0L73.20000076293944,1.6666666666666665C73.20000076293945,3.333333333333333,73.20000076293945,6.666666666666666,73.20000076293944,8.333333333333332C73.20000076293945,10,73.20000076293945,10,73.20000076293944,11.666666666666664C73.20000076293945,13.333333333333332,73.20000076293945,16.666666666666664,73.20000076293944,18.333333333333332L73.20000076293945,20"/></g></g><g class="node-container" transform="translate(96.20832824707031,248)"><g class="node state Task NotYetStarted"><rect class="shape" rx="5" ry="5" x="-75.73332977294922" y="-19" width="151.46665954589844" height="38"/><text class="label"><tspan xml:space="preserve" text-anchor="middle" alignment-baseline="central">mDiffFit-Red-Fanout</tspan></text></g></g><g class="node-container" transform="translate(96.20832824707031,331)"><g class="node state Map NotYetStarted Container" transform="translate(-70.61666488647461,-39)"><rect class="shape" rx="5" ry="5" x="-10" y="-10" width="139.23332977294922" height="76"/><rect class="shape" rx="5" ry="5" x="-5" y="-5" width="140.23332977294922" height="77"/><rect class="shape" rx="5" ry="5" x="0" y="0" width="141.23332977294922" height="78"/><g class="branches" transform="translate(20,20)"><g class="branch" transform="translate(0,0)"><g class="nodes"><g class="node-container" transform="translate(50.61666488647461,19)"><g class="node state Task NotYetStarted"><rect class="shape" rx="5" ry="5" x="-50.61666488647461" y="-19" width="101.23332977294922" height="38"/><text class="label"><tspan xml:space="preserve" text-anchor="middle" alignment-baseline="central">mDiffFit-Red</tspan></text></g></g></g><g class="edges"/></g></g><path class="path" style="fill: none;" marker-end="url(#arrowhead16)" d="M70.61666488647461,0L70.61666488647461,1.6666666666666665C70.61666488647461,3.333333333333333,70.61666488647461,6.666666666666666,70.61666488647461,8.333333333333332C70.61666488647461,10,70.61666488647461,10,70.61666488647461,11.666666666666664C70.61666488647461,13.333333333333332,70.61666488647461,16.666666666666664,70.61666488647461,18.333333333333332L70.61666488647461,20"/></g></g><g class="node-container" transform="translate(96.20832824707031,414)"><g class="node state Task NotYetStarted"><rect class="shape" rx="5" ry="5" x="-61.09166717529297" y="-19" width="122.18333435058594" height="38"/><text class="label"><tspan xml:space="preserve" text-anchor="middle" alignment-baseline="central">mConcatFit-Red</tspan></text></g></g><g class="node-container" transform="translate(96.20832824707031,477)"><g class="node state Task NotYetStarted"><rect class="shape" rx="5" ry="5" x="-59.15833282470703" y="-19" width="118.31666564941406" height="38"/><text class="label"><tspan xml:space="preserve" text-anchor="middle" alignment-baseline="central">mBgModel-Red</tspan></text></g></g><g class="node-container" transform="translate(96.20832824707031,540)"><g class="node state Task NotYetStarted"><rect class="shape" rx="5" ry="5" x="-93.82499694824219" y="-19" width="187.64999389648438" height="38"/><text class="label"><tspan xml:space="preserve" text-anchor="middle" alignment-baseline="central">mBackground-Red-Fanout</tspan></text></g></g><g class="node-container" transform="translate(96.20832824707031,623)"><g class="node state Map NotYetStarted Container" transform="translate(-88.70832824707031,-39)"><rect class="shape" rx="5" ry="5" x="-10" y="-10" width="175.41665649414062" height="76"/><rect class="shape" rx="5" ry="5" x="-5" y="-5" width="176.41665649414062" height="77"/><rect class="shape" rx="5" ry="5" x="0" y="0" width="177.41665649414062" height="78"/><g class="branches" transform="translate(20,20)"><g class="branch" transform="translate(0,0)"><g class="nodes"><g class="node-container" transform="translate(68.70833206176758,19)"><g class="node state Task NotYetStarted"><rect class="shape" rx="5" ry="5" x="-68.70833206176758" y="-19" width="137.41666412353516" height="38"/><text class="label"><tspan xml:space="preserve" text-anchor="middle" alignment-baseline="central">mBackground-Red</tspan></text></g></g></g><g class="edges"/></g></g><path class="path" style="fill: none;" marker-end="url(#arrowhead17)" d="M88.70832824707031,0L88.70832824707031,1.6666666666666665C88.70832824707031,3.333333333333333,88.70832824707031,6.666666666666666,88.7083288828532,8.333333333333332C88.70832951863606,10,88.70833079020181,10,88.7083314259847,11.666666666666664C88.70833206176758,13.333333333333332,88.70833206176758,16.666666666666664,88.70833206176758,18.333333333333332L88.70833206176758,20"/></g></g><g class="node-container" transform="translate(96.20832824707031,706)"><g class="node state Task NotYetStarted"><rect class="shape" rx="5" ry="5" x="-52.11666488647461" y="-19" width="104.23332977294922" height="38"/><text class="label"><tspan xml:space="preserve" text-anchor="middle" alignment-baseline="central">mImgtbl-Red</tspan></text></g></g><g class="node-container" transform="translate(96.20832824707031,769)"><g class="node state Task NotYetStarted"><rect class="shape" rx="5" ry="5" x="-43.733333587646484" y="-19" width="87.46666717529297" height="38"/><text class="label"><tspan xml:space="preserve" text-anchor="middle" alignment-baseline="central">mAdd-Red</tspan></text></g></g><g class="node-container" transform="translate(96.20832824707031,832)"><g class="node state Task NotYetStarted"><rect class="shape" rx="5" ry="5" x="-52.63333511352539" y="-19" width="105.26667022705078" height="38"/><text class="label"><tspan xml:space="preserve" text-anchor="middle" alignment-baseline="central">mViewer-Red</tspan></text></g></g></g><g class="edges"><g class="edge"><path class="path" style="fill: none;" marker-end="url(#arrowhead18)" d="M96.20832824707031,38L96.20832824707031,40.08333333333333C96.20832824707031,42.166666666666664,96.20832824707031,46.33333333333333,96.20832824707031,50.5C96.20832824707031,54.666666666666664,96.20832824707031,58.83333333333333,96.20832824707031,60.916666666666664L96.20832824707031,63"/><defs><marker id="arrowhead18" viewBox="0 0 10 10" refX="9" refY="5" markerUnits="strokeWidth" markerWidth="8" markerHeight="6" orient="auto"><path d="M 0 0 L 10 5 L 0 10 z"/></marker></defs></g><g class="edge"><path class="path" style="fill: none;" marker-end="url(#arrowhead19)" d="M96.20832824707031,101L96.20832824707031,103.08333333333331C96.20832824707031,105.16666666666666,96.20832824707031,109.33333333333331,96.20832824707031,113.49999999999999C96.20832824707031,117.66666666666666,96.20832824707031,121.83333333333333,96.20832824707031,123.91666666666666L96.20832824707031,126"/><defs><marker id="arrowhead19" viewBox="0 0 10 10" refX="9" refY="5" markerUnits="strokeWidth" markerWidth="8" markerHeight="6" orient="auto"><path d="M 0 0 L 10 5 L 0 10 z"/></marker></defs></g><g class="edge"><path class="path" style="fill: none;" marker-end="url(#arrowhead20)" d="M96.20832824707031,204L96.20832824707031,206.08333333333331C96.20832824707031,208.16666666666666,96.20832824707031,212.33333333333331,96.20832824707031,216.49999999999997C96.20832824707031,220.66666666666663,96.20832824707031,224.83333333333331,96.20832824707031,226.91666666666666L96.20832824707031,229"/><defs><marker id="arrowhead20" viewBox="0 0 10 10" refX="9" refY="5" markerUnits="strokeWidth" markerWidth="8" markerHeight="6" orient="auto"><path d="M 0 0 L 10 5 L 0 10 z"/></marker></defs></g><g class="edge"><path class="path" style="fill: none;" marker-end="url(#arrowhead21)" d="M96.20832824707031,267L96.20832824707031,269.0833333333333C96.20832824707031,271.16666666666663,96.20832824707031,275.3333333333333,96.20832824707031,279.5C96.20832824707031,283.66666666666663,96.20832824707031,287.8333333333333,96.20832824707031,289.9166666666667L96.20832824707031,292"/><defs><marker id="arrowhead21" viewBox="0 0 10 10" refX="9" refY="5" markerUnits="strokeWidth" markerWidth="8" markerHeight="6" orient="auto"><path d="M 0 0 L 10 5 L 0 10 z"/></marker></defs></g><g class="edge"><path class="path" style="fill: none;" marker-end="url(#arrowhead22)" d="M96.20832824707031,370L96.20832824707031,372.0833333333333C96.20832824707031,374.16666666666663,96.20832824707031,378.3333333333333,96.20832824707031,382.5C96.20832824707031,386.66666666666663,96.20832824707031,390.8333333333333,96.20832824707031,392.91666666666663L96.20832824707031,395"/><defs><marker id="arrowhead22" viewBox="0 0 10 10" refX="9" refY="5" markerUnits="strokeWidth" markerWidth="8" markerHeight="6" orient="auto"><path d="M 0 0 L 10 5 L 0 10 z"/></marker></defs></g><g class="edge"><path class="path" style="fill: none;" marker-end="url(#arrowhead23)" d="M96.20832824707031,433L96.20832824707031,435.08333333333326C96.20832824707031,437.16666666666663,96.20832824707031,441.3333333333333,96.20832824707031,445.49999999999994C96.20832824707031,449.66666666666663,96.20832824707031,453.8333333333333,96.20832824707031,455.91666666666663L96.20832824707031,458"/><defs><marker id="arrowhead23" viewBox="0 0 10 10" refX="9" refY="5" markerUnits="strokeWidth" markerWidth="8" markerHeight="6" orient="auto"><path d="M 0 0 L 10 5 L 0 10 z"/></marker></defs></g><g class="edge"><path class="path" style="fill: none;" marker-end="url(#arrowhead24)" d="M96.20832824707031,496L96.20832824707031,498.08333333333326C96.20832824707031,500.16666666666663,96.20832824707031,504.3333333333333,96.20832824707031,508.49999999999994C96.20832824707031,512.6666666666666,96.20832824707031,516.8333333333333,96.20832824707031,518.9166666666666L96.20832824707031,521"/><defs><marker id="arrowhead24" viewBox="0 0 10 10" refX="9" refY="5" markerUnits="strokeWidth" markerWidth="8" markerHeight="6" orient="auto"><path d="M 0 0 L 10 5 L 0 10 z"/></marker></defs></g><g class="edge"><path class="path" style="fill: none;" marker-end="url(#arrowhead25)" d="M96.20832824707031,559L96.20832824707031,561.0833333333333C96.20832824707031,563.1666666666666,96.20832824707031,567.3333333333333,96.20832824707031,571.5C96.20832824707031,575.6666666666666,96.20832824707031,579.8333333333333,96.20832824707031,581.9166666666666L96.20832824707031,584"/><defs><marker id="arrowhead25" viewBox="0 0 10 10" refX="9" refY="5" markerUnits="strokeWidth" markerWidth="8" markerHeight="6" orient="auto"><path d="M 0 0 L 10 5 L 0 10 z"/></marker></defs></g><g class="edge"><path class="path" style="fill: none;" marker-end="url(#arrowhead26)" d="M96.20832824707031,662L96.20832824707031,664.0833333333333C96.20832824707031,666.1666666666666,96.20832824707031,670.3333333333333,96.20832824707031,674.5C96.20832824707031,678.6666666666666,96.20832824707031,682.8333333333333,96.20832824707031,684.9166666666666L96.20832824707031,687"/><defs><marker id="arrowhead26" viewBox="0 0 10 10" refX="9" refY="5" markerUnits="strokeWidth" markerWidth="8" markerHeight="6" orient="auto"><path d="M 0 0 L 10 5 L 0 10 z"/></marker></defs></g><g class="edge"><path class="path" style="fill: none;" marker-end="url(#arrowhead27)" d="M96.20832824707031,725L96.20832824707031,727.0833333333333C96.20832824707031,729.1666666666666,96.20832824707031,733.3333333333333,96.20832824707031,737.5C96.20832824707031,741.6666666666666,96.20832824707031,745.8333333333333,96.20832824707031,747.9166666666666L96.20832824707031,750"/><defs><marker id="arrowhead27" viewBox="0 0 10 10" refX="9" refY="5" markerUnits="strokeWidth" markerWidth="8" markerHeight="6" orient="auto"><path d="M 0 0 L 10 5 L 0 10 z"/></marker></defs></g><g class="edge"><path class="path" style="fill: none;" marker-end="url(#arrowhead28)" d="M96.20832824707031,788L96.20832824707031,790.0833333333331C96.20832824707031,792.1666666666665,96.20832824707031,796.3333333333333,96.20832824707031,800.5C96.20832824707031,804.6666666666666,96.20832824707031,808.8333333333333,96.20832824707031,810.9166666666666L96.20832824707031,813"/><defs><marker id="arrowhead28" viewBox="0 0 10 10" refX="9" refY="5" markerUnits="strokeWidth" markerWidth="8" markerHeight="6" orient="auto"><path d="M 0 0 L 10 5 L 0 10 z"/></marker></defs></g></g></g><g class="branch" transform="translate(428.96665954589844,0)"><g class="nodes"><g class="node-container" transform="translate(89.0999984741211,19)"><g class="node state Task NotYetStarted"><rect class="shape" rx="5" ry="5" x="-62.04999923706055" y="-19" width="124.0999984741211" height="38"/><text class="label"><tspan xml:space="preserve" text-anchor="middle" alignment-baseline="central">DownloadDataIr</tspan></text></g></g><g class="node-container" transform="translate(89.0999984741211,82)"><g class="node state Task NotYetStarted"><rect class="shape" rx="5" ry="5" x="-70.81666564941406" y="-19" width="141.63333129882812" height="38"/><text class="label"><tspan xml:space="preserve" text-anchor="middle" alignment-baseline="central">mProject-Ir-Fanout</tspan></text></g></g><g class="node-container" transform="translate(89.0999984741211,165)"><g class="node state Map NotYetStarted Container" transform="translate(-66.09166717529297,-39)"><rect class="shape" rx="5" ry="5" x="-10" y="-10" width="130.18333435058594" height="76"/><rect class="shape" rx="5" ry="5" x="-5" y="-5" width="131.18333435058594" height="77"/><rect class="shape" rx="5" ry="5" x="0" y="0" width="132.18333435058594" height="78"/><g class="branches" transform="translate(20,20)"><g class="branch" transform="translate(0,0)"><g class="nodes"><g class="node-container" transform="translate(46.09166717529297,19)"><g class="node state Task NotYetStarted"><rect class="shape" rx="5" ry="5" x="-46.09166717529297" y="-19" width="92.18333435058594" height="38"/><text class="label"><tspan xml:space="preserve" text-anchor="middle" alignment-baseline="central">mProject-Ir</tspan></text></g></g></g><g class="edges"/></g></g><path class="path" style="fill: none;" marker-end="url(#arrowhead29)" d="M66.09166717529297,0L66.09166717529297,1.6666666666666665C66.09166717529297,3.333333333333333,66.09166717529297,6.666666666666666,66.09166717529297,8.333333333333332C66.09166717529297,10,66.09166717529297,10,66.09166717529297,11.666666666666664C66.09166717529297,13.333333333333332,66.09166717529297,16.666666666666664,66.09166717529297,18.333333333333332L66.09166717529297,20"/></g></g><g class="node-container" transform="translate(89.0999984741211,248)"><g class="node state Task NotYetStarted"><rect class="shape" rx="5" ry="5" x="-68.23333358764648" y="-19" width="136.46666717529297" height="38"/><text class="label"><tspan xml:space="preserve" text-anchor="middle" alignment-baseline="central">mDiffFit-Ir-Fanout</tspan></text></g></g><g class="node-container" transform="translate(89.0999984741211,331)"><g class="node state Map NotYetStarted Container" transform="translate(-63.50833511352539,-39)"><rect class="shape" rx="5" ry="5" x="-10" y="-10" width="125.01667022705078" height="76"/><rect class="shape" rx="5" ry="5" x="-5" y="-5" width="126.01667022705078" height="77"/><rect class="shape" rx="5" ry="5" x="0" y="0" width="127.01667022705078" height="78"/><g class="branches" transform="translate(20,20)"><g class="branch" transform="translate(0,0)"><g class="nodes"><g class="node-container" transform="translate(43.50833511352539,19)"><g class="node state Task NotYetStarted"><rect class="shape" rx="5" ry="5" x="-43.50833511352539" y="-19" width="87.01667022705078" height="38"/><text class="label"><tspan xml:space="preserve" text-anchor="middle" alignment-baseline="central">mDiffFit-Ir</tspan></text></g></g></g><g class="edges"/></g></g><path class="path" style="fill: none;" marker-end="url(#arrowhead30)" d="M63.50833511352539,0L63.50833511352539,1.6666666666666665C63.50833511352539,3.333333333333333,63.50833511352539,6.666666666666666,63.50833511352539,8.333333333333332C63.50833511352539,10,63.50833511352539,10,63.50833511352539,11.666666666666664C63.50833511352539,13.333333333333332,63.50833511352539,16.666666666666664,63.50833511352539,18.333333333333332L63.50833511352539,20"/></g></g><g class="node-container" transform="translate(89.0999984741211,414)"><g class="node state Task NotYetStarted"><rect class="shape" rx="5" ry="5" x="-53.983333587646484" y="-19" width="107.96666717529297" height="38"/><text class="label"><tspan xml:space="preserve" text-anchor="middle" alignment-baseline="central">mConcatFit-Ir</tspan></text></g></g><g class="node-container" transform="translate(89.0999984741211,477)"><g class="node state Task NotYetStarted"><rect class="shape" rx="5" ry="5" x="-52.04999923706055" y="-19" width="104.0999984741211" height="38"/><text class="label"><tspan xml:space="preserve" text-anchor="middle" alignment-baseline="central">mBgModel-Ir</tspan></text></g></g><g class="node-container" transform="translate(89.0999984741211,540)"><g class="node state Task NotYetStarted"><rect class="shape" rx="5" ry="5" x="-86.32499694824219" y="-19" width="172.64999389648438" height="38"/><text class="label"><tspan xml:space="preserve" text-anchor="middle" alignment-baseline="central">mBackground-Ir-Fanout</tspan></text></g></g><g class="node-container" transform="translate(89.0999984741211,623)"><g class="node state Map NotYetStarted Container" transform="translate(-81.5999984741211,-39)"><rect class="shape" rx="5" ry="5" x="-10" y="-10" width="161.1999969482422" height="76"/><rect class="shape" rx="5" ry="5" x="-5" y="-5" width="162.1999969482422" height="77"/><rect class="shape" rx="5" ry="5" x="0" y="0" width="163.1999969482422" height="78"/><g class="branches" transform="translate(20,20)"><g class="branch" transform="translate(0,0)"><g class="nodes"><g class="node-container" transform="translate(61.599998474121094,19)"><g class="node state Task NotYetStarted"><rect class="shape" rx="5" ry="5" x="-61.599998474121094" y="-19" width="123.19999694824219" height="38"/><text class="label"><tspan xml:space="preserve" text-anchor="middle" alignment-baseline="central">mBackground-Ir</tspan></text></g></g></g><g class="edges"/></g></g><path class="path" style="fill: none;" marker-end="url(#arrowhead31)" d="M81.5999984741211,0L81.59999847412108,1.6666666666666665C81.5999984741211,3.333333333333333,81.5999984741211,6.666666666666666,81.59999847412108,8.333333333333332C81.5999984741211,10,81.5999984741211,10,81.59999847412108,11.666666666666664C81.5999984741211,13.333333333333332,81.5999984741211,16.666666666666664,81.59999847412108,18.333333333333332L81.5999984741211,20"/></g></g><g class="node-container" transform="translate(89.0999984741211,706)"><g class="node state Task NotYetStarted"><rect class="shape" rx="5" ry="5" x="-45.00833511352539" y="-19" width="90.01667022705078" height="38"/><text class="label"><tspan xml:space="preserve" text-anchor="middle" alignment-baseline="central">mImgtbl-Ir</tspan></text></g></g><g class="node-container" transform="translate(89.0999984741211,769)"><g class="node state Task NotYetStarted"><rect class="shape" rx="5" ry="5" x="-36.625" y="-19" width="73.25" height="38"/><text class="label"><tspan xml:space="preserve" text-anchor="middle" alignment-baseline="central">mAdd-Ir</tspan></text></g></g><g class="node-container" transform="translate(89.0999984741211,832)"><g class="node state Task NotYetStarted"><rect class="shape" rx="5" ry="5" x="-45.525001525878906" y="-19" width="91.05000305175781" height="38"/><text class="label"><tspan xml:space="preserve" text-anchor="middle" alignment-baseline="central">mViewer-Ir</tspan></text></g></g></g><g class="edges"><g class="edge"><path class="path" style="fill: none;" marker-end="url(#arrowhead32)" d="M89.0999984741211,38L89.09999847412108,40.08333333333333C89.0999984741211,42.166666666666664,89.0999984741211,46.33333333333333,89.09999847412108,50.5C89.0999984741211,54.666666666666664,89.0999984741211,58.83333333333333,89.09999847412108,60.916666666666664L89.0999984741211,63"/><defs><marker id="arrowhead32" viewBox="0 0 10 10" refX="9" refY="5" markerUnits="strokeWidth" markerWidth="8" markerHeight="6" orient="auto"><path d="M 0 0 L 10 5 L 0 10 z"/></marker></defs></g><g class="edge"><path class="path" style="fill: none;" marker-end="url(#arrowhead33)" d="M89.0999984741211,101L89.09999847412108,103.08333333333331C89.0999984741211,105.16666666666666,89.0999984741211,109.33333333333331,89.09999847412108,113.49999999999999C89.0999984741211,117.66666666666666,89.0999984741211,121.83333333333333,89.09999847412108,123.91666666666666L89.0999984741211,126"/><defs><marker id="arrowhead33" viewBox="0 0 10 10" refX="9" refY="5" markerUnits="strokeWidth" markerWidth="8" markerHeight="6" orient="auto"><path d="M 0 0 L 10 5 L 0 10 z"/></marker></defs></g><g class="edge"><path class="path" style="fill: none;" marker-end="url(#arrowhead34)" d="M89.0999984741211,204L89.09999847412108,206.08333333333331C89.0999984741211,208.16666666666666,89.0999984741211,212.33333333333331,89.09999847412108,216.49999999999997C89.0999984741211,220.66666666666663,89.0999984741211,224.83333333333331,89.09999847412108,226.91666666666666L89.0999984741211,229"/><defs><marker id="arrowhead34" viewBox="0 0 10 10" refX="9" refY="5" markerUnits="strokeWidth" markerWidth="8" markerHeight="6" orient="auto"><path d="M 0 0 L 10 5 L 0 10 z"/></marker></defs></g><g class="edge"><path class="path" style="fill: none;" marker-end="url(#arrowhead35)" d="M89.0999984741211,267L89.09999847412108,269.0833333333333C89.0999984741211,271.16666666666663,89.0999984741211,275.3333333333333,89.09999847412108,279.5C89.0999984741211,283.66666666666663,89.0999984741211,287.8333333333333,89.09999847412108,289.9166666666667L89.0999984741211,292"/><defs><marker id="arrowhead35" viewBox="0 0 10 10" refX="9" refY="5" markerUnits="strokeWidth" markerWidth="8" markerHeight="6" orient="auto"><path d="M 0 0 L 10 5 L 0 10 z"/></marker></defs></g><g class="edge"><path class="path" style="fill: none;" marker-end="url(#arrowhead36)" d="M89.0999984741211,370L89.09999847412108,372.0833333333333C89.0999984741211,374.16666666666663,89.0999984741211,378.3333333333333,89.09999847412108,382.5C89.0999984741211,386.66666666666663,89.0999984741211,390.8333333333333,89.09999847412108,392.91666666666663L89.0999984741211,395"/><defs><marker id="arrowhead36" viewBox="0 0 10 10" refX="9" refY="5" markerUnits="strokeWidth" markerWidth="8" markerHeight="6" orient="auto"><path d="M 0 0 L 10 5 L 0 10 z"/></marker></defs></g><g class="edge"><path class="path" style="fill: none;" marker-end="url(#arrowhead37)" d="M89.0999984741211,433L89.09999847412108,435.08333333333326C89.0999984741211,437.16666666666663,89.0999984741211,441.3333333333333,89.09999847412108,445.49999999999994C89.0999984741211,449.66666666666663,89.0999984741211,453.8333333333333,89.09999847412108,455.91666666666663L89.0999984741211,458"/><defs><marker id="arrowhead37" viewBox="0 0 10 10" refX="9" refY="5" markerUnits="strokeWidth" markerWidth="8" markerHeight="6" orient="auto"><path d="M 0 0 L 10 5 L 0 10 z"/></marker></defs></g><g class="edge"><path class="path" style="fill: none;" marker-end="url(#arrowhead38)" d="M89.0999984741211,496L89.09999847412108,498.08333333333326C89.0999984741211,500.16666666666663,89.0999984741211,504.3333333333333,89.09999847412108,508.49999999999994C89.0999984741211,512.6666666666666,89.0999984741211,516.8333333333333,89.09999847412108,518.9166666666666L89.0999984741211,521"/><defs><marker id="arrowhead38" viewBox="0 0 10 10" refX="9" refY="5" markerUnits="strokeWidth" markerWidth="8" markerHeight="6" orient="auto"><path d="M 0 0 L 10 5 L 0 10 z"/></marker></defs></g><g class="edge"><path class="path" style="fill: none;" marker-end="url(#arrowhead39)" d="M89.0999984741211,559L89.09999847412108,561.0833333333333C89.0999984741211,563.1666666666666,89.0999984741211,567.3333333333333,89.09999847412108,571.5C89.0999984741211,575.6666666666666,89.0999984741211,579.8333333333333,89.09999847412108,581.9166666666666L89.0999984741211,584"/><defs><marker id="arrowhead39" viewBox="0 0 10 10" refX="9" refY="5" markerUnits="strokeWidth" markerWidth="8" markerHeight="6" orient="auto"><path d="M 0 0 L 10 5 L 0 10 z"/></marker></defs></g><g class="edge"><path class="path" style="fill: none;" marker-end="url(#arrowhead40)" d="M89.0999984741211,662L89.09999847412108,664.0833333333333C89.0999984741211,666.1666666666666,89.0999984741211,670.3333333333333,89.09999847412108,674.5C89.0999984741211,678.6666666666666,89.0999984741211,682.8333333333333,89.09999847412108,684.9166666666666L89.0999984741211,687"/><defs><marker id="arrowhead40" viewBox="0 0 10 10" refX="9" refY="5" markerUnits="strokeWidth" markerWidth="8" markerHeight="6" orient="auto"><path d="M 0 0 L 10 5 L 0 10 z"/></marker></defs></g><g class="edge"><path class="path" style="fill: none;" marker-end="url(#arrowhead41)" d="M89.0999984741211,725L89.09999847412108,727.0833333333333C89.0999984741211,729.1666666666666,89.0999984741211,733.3333333333333,89.09999847412108,737.5C89.0999984741211,741.6666666666666,89.0999984741211,745.8333333333333,89.09999847412108,747.9166666666666L89.0999984741211,750"/><defs><marker id="arrowhead41" viewBox="0 0 10 10" refX="9" refY="5" markerUnits="strokeWidth" markerWidth="8" markerHeight="6" orient="auto"><path d="M 0 0 L 10 5 L 0 10 z"/></marker></defs></g><g class="edge"><path class="path" style="fill: none;" marker-end="url(#arrowhead42)" d="M89.0999984741211,788L89.09999847412108,790.0833333333331C89.0999984741211,792.1666666666665,89.0999984741211,796.3333333333333,89.09999847412108,800.5C89.0999984741211,804.6666666666666,89.0999984741211,808.8333333333333,89.09999847412108,810.9166666666666L89.0999984741211,813"/><defs><marker id="arrowhead42" viewBox="0 0 10 10" refX="9" refY="5" markerUnits="strokeWidth" markerWidth="8" markerHeight="6" orient="auto"><path d="M 0 0 L 10 5 L 0 10 z"/></marker></defs></g></g></g></g><path class="path" style="fill: none;" marker-end="url(#arrowhead43)" d="M323.4458312988281,0L323.4458312988281,3.333333333333333C323.4458312988281,6.666666666666666,323.4458312988281,13.333333333333332,289.2312482198079,16.666666666666664C255.01666514078775,20,186.58749898274738,20,152.3729159037272,23.33333333333333C118.15833282470703,26.666666666666664,118.15833282470703,33.33333333333333,118.15833282470702,36.666666666666664L118.15833282470703,40"/><path class="path" style="fill: none;" marker-end="url(#arrowhead44)" d="M323.4458312988281,0L323.4458312988281,3.333333333333333C323.4458312988281,6.666666666666666,323.4458312988281,13.333333333333332,324.9784698486328,16.666666666666664C326.5111083984375,20,329.5763854980469,20,331.10902404785156,23.33333333333333C332.64166259765625,26.666666666666664,332.64166259765625,33.33333333333333,332.64166259765625,36.666666666666664L332.64166259765625,40"/><path class="path" style="fill: none;" marker-end="url(#arrowhead45)" d="M323.4458312988281,0L323.4458312988281,3.333333333333333C323.4458312988281,6.666666666666666,323.4458312988281,13.333333333333332,359.21596908569336,16.666666666666664C394.9861068725586,20,466.52638244628906,20,502.2965202331543,23.33333333333333C538.0666580200195,26.666666666666664,538.0666580200195,33.33333333333333,538.0666580200195,36.666666666666664L538.0666580200195,40"/></g></g><g class="node-container" transform="translate(323.4458312988281,1018)"><g class="node state Task NotYetStarted"><rect class="shape" rx="5" ry="5" x="-54.57500076293945" y="-19" width="109.1500015258789" height="38"/><text class="label"><tspan xml:space="preserve" text-anchor="middle" alignment-baseline="central">MergeMosaics</tspan></text></g></g></g><g class="edges"><g class="edge"><path class="path" style="fill: none;" marker-end="url(#arrowhead46)" d="M323.4458312988281,974L323.4458312988281,976.0833333333331C323.4458312988281,978.1666666666665,323.4458312988281,982.3333333333333,323.4458312988281,986.5C323.4458312988281,990.6666666666666,323.4458312988281,994.8333333333333,323.4458312988281,996.9166666666666L323.4458312988281,999"/><defs><marker id="arrowhead46" viewBox="0 0 10 10" refX="9" refY="5" markerUnits="strokeWidth" markerWidth="8" markerHeight="6" orient="auto"><path d="M 0 0 L 10 5 L 0 10 z"/></marker></defs></g><g class="edge"><path class="path" style="fill: none;" marker-end="url(#arrowhead47)" d="M323.4458312988281,45.191667556762695L323.4458312988281,46.076389630635575C323.4458312988281,46.96111170450846,323.4458312988281,48.73055585225423,323.4458312988281,51.69861125946045C323.4458312988281,54.666666666666664,323.4458312988281,58.83333333333333,323.4458312988281,60.916666666666664L323.4458312988281,63"/><defs><marker id="arrowhead47" viewBox="0 0 10 10" refX="9" refY="5" markerUnits="strokeWidth" markerWidth="8" markerHeight="6" orient="auto"><path d="M 0 0 L 10 5 L 0 10 z"/></marker></defs></g><g class="edge"><path class="path" style="fill: none;" marker-end="url(#arrowhead48)" d="M323.4458312988281,1037L323.4458312988281,1039.0833333333333C323.4458312988281,1041.1666666666665,323.4458312988281,1045.3333333333333,323.4458312988281,1048.9708333015442C323.4458312988281,1052.608333269755,323.4458312988281,1055.71666653951,323.4458312988281,1057.2708331743875L323.4458312988281,1058.8249998092651"/><defs><marker id="arrowhead48" viewBox="0 0 10 10" refX="9" refY="5" markerUnits="strokeWidth" markerWidth="8" markerHeight="6" orient="auto"><path d="M 0 0 L 10 5 L 0 10 z"/></marker></defs></g></g></g><style xmlns="http://www.w3.org/1999/xhtml">.node &gt; .shape {stroke: #555555;stroke-width: 0.6px;fill: #FFFFFF;} path {stroke: #555;background-color: #555;stroke-width: 1px;} .node.state.NotYetStarted &gt; .shape,.node.state.Container &gt; .shape {stroke-dasharray: 5 2;} .node.state.Failed &gt; .shape,rect.legend.Failed {fill: #DE322F;} .node.state.CaughtError &gt; .shape,rect.legend.CaughtError {fill: #FFA500;} .node.state.Succeeded &gt; .shape,rect.legend.Succeeded {fill: #2BD62E;} .node.state.InProgress &gt; .shape,rect.legend.InProgress {fill: #53c9ed;} .node.state.Cancelled &gt; .shape,rect.legend.Cancelled {fill: #dddddd;} .node.anchor &gt; .shape {fill: #FFDA75;} .node.state.hovered:not(.selected):not(.NotYetStarted) &gt; .shape,.node.selected &gt; .shape {stroke: #555555;stroke-width: 2px;} .node.state.Container.Failed &gt; .shape {fill: #EE9592;} .node.state.Container.CaughtError &gt; .shape {fill: #FFD27F;} .node.state.Container.Succeeded &gt; .shape {fill: #91EA9A;} .node.state.Container.InProgress &gt; .shape {fill :#A9E4F7;} .node.state.Container.Cancelled &gt; .shape {fill: #EEEEEE;} marker {fill: #555555;} .node.anchor,.node.state.NotYetStarted {cursor: default;} .node.state {cursor: pointer;} tspan .label {font-weight: normal;font-size: 12px;text-shadow: none;} </style></svg>